<svg width="108" height="133" viewBox="0 0 108 133" fill="none" xmlns="http://www.w3.org/2000/svg">
<g clip-path="url(#clip0_480_10)">
<path d="M69.367 0C71.2625 0.779922 73.3443 1.28019 75.0161 2.39259C78.6764 4.82868 80.1524 8.53875 80.1866 12.8641C80.1928 13.8988 80.1866 14.9304 80.1866 16.1671C80.7335 16.1671 81.1902 16.1671 81.647 16.1671C86.2334 16.1671 90.8228 16.1298 95.4092 16.1764C100.897 16.2323 104.955 18.5876 107.142 23.7581C109.606 29.5811 106.567 36.7682 100.645 38.993C99.4704 39.4342 99.1628 40.0153 99.1659 41.2209C99.2032 65.9702 99.1908 90.7195 99.197 115.469C99.197 119.365 98.3953 123.035 96.1052 126.257C93.0445 130.564 88.8435 132.842 83.558 132.938C79.0151 133.019 74.4692 132.956 69.9263 132.956C55.0828 132.956 40.2393 132.845 25.3958 132.997C16.1982 133.093 9.07631 126.17 8.89298 116.789C8.74072 109.09 8.85259 101.387 8.84948 93.6838C8.84948 76.075 8.84016 58.4631 8.87123 40.8542C8.87123 39.8723 8.59157 39.4591 7.65628 39.1173C2.62558 37.2933 -0.602889 31.9115 0.0931432 26.682C0.842 21.0859 5.22638 16.6984 10.7511 16.3566C14.803 16.108 18.8798 16.2137 22.9441 16.1702C24.5009 16.1546 26.0576 16.1702 27.7231 16.1702C27.8164 14.368 27.835 12.6124 28.0152 10.8723C28.5776 5.40974 32.6668 1.12793 38.117 0.205079C38.3221 0.170899 38.5179 0.071467 38.7167 0C48.9335 0 59.1502 0 69.3639 0L69.367 0ZM92.9607 39.95H15.0827C15.0827 40.3975 15.0827 40.7393 15.0827 41.0842C15.0827 65.9671 15.0827 90.8531 15.092 115.736C15.092 116.597 15.1635 117.467 15.2971 118.321C16.0708 123.274 19.9021 126.711 24.8272 126.717C44.3067 126.745 63.7832 126.733 83.2628 126.723C85.6896 126.723 87.8398 125.928 89.6296 124.244C92.1807 121.842 92.9607 118.778 92.9607 115.419C92.9607 90.7071 92.9607 65.9982 92.9607 41.2861C92.9607 40.8636 92.9607 40.441 92.9607 39.9531V39.95ZM54.0512 33.6299C67.6394 33.6299 81.2244 33.6299 94.8126 33.6268C95.4589 33.6268 96.1114 33.6112 96.7546 33.5398C99.7718 33.2166 101.913 30.6127 101.661 27.5987C101.388 24.3112 98.995 22.4033 95.1233 22.4002C67.7326 22.4002 40.3418 22.4002 12.9511 22.4033C12.3048 22.4033 11.6523 22.4406 11.0153 22.5401C8.38028 22.944 6.45687 25.1129 6.30772 27.8006C6.171 30.3175 7.95769 32.7971 10.4528 33.3968C11.3229 33.605 12.2551 33.6143 13.1593 33.6174C26.791 33.6299 40.4195 33.6268 54.0512 33.6268V33.6299ZM73.857 16.1236C73.857 14.4954 73.9813 12.979 73.8291 11.4906C73.5246 8.5201 71.1599 6.28598 68.1614 6.26734C58.7246 6.2083 49.2877 6.2083 39.854 6.27356C37.3961 6.2922 35.5877 7.619 34.5934 9.87798C33.7078 11.8884 34.1428 14.0075 34.0807 16.1236H73.857Z" fill="#F44336"/>
<path d="M38.7352 80.7701C38.7352 90.1541 38.7352 99.5411 38.7352 108.925C38.7352 109.357 38.7508 109.792 38.7135 110.221C38.5643 111.905 37.4146 113.083 35.833 113.204C34.2949 113.322 32.965 112.259 32.6325 110.606C32.5393 110.146 32.5144 109.665 32.5144 109.192C32.5082 90.2069 32.5082 71.2184 32.5113 52.2331C32.5113 49.5764 33.7263 48.1253 35.8268 48.2402C37.4643 48.3303 38.6234 49.5297 38.7197 51.3164C38.7756 52.3946 38.7383 53.4791 38.7383 54.5604C38.7383 63.298 38.7383 72.0325 38.7383 80.7701H38.7352Z" fill="#F44336"/>
<path d="M50.9066 80.6305C50.9066 71.116 50.9097 61.6016 50.9004 52.0872C50.9004 50.7324 51.1086 49.5051 52.3732 48.7065C54.1102 47.6065 56.4127 48.461 56.9223 50.4528C57.0901 51.1115 57.1305 51.8169 57.1305 52.5036C57.1398 71.318 57.1398 90.1294 57.1305 108.944C57.1305 109.587 57.0901 110.243 56.9472 110.867C56.6302 112.253 55.4401 113.185 54.0636 113.216C52.656 113.247 51.3758 112.281 51.0495 110.849C50.9159 110.268 50.9097 109.649 50.9097 109.046C50.9004 99.5754 50.9035 90.1045 50.9035 80.6305H50.9066Z" fill="#F44336"/>
<path d="M69.2896 80.6367C69.2896 71.2093 69.2896 61.7818 69.2896 52.3544C69.2896 49.6666 70.3336 48.2559 72.3316 48.2218C74.3731 48.1876 75.5197 49.6729 75.5197 52.37C75.5197 71.2683 75.5197 90.1698 75.5197 109.068C75.5197 111.715 74.4321 113.17 72.4434 113.213C70.4082 113.26 69.2896 111.79 69.2896 109.049C69.2896 99.5785 69.2896 90.1076 69.2896 80.6367Z" fill="#F44336"/>
</g>
<defs>
<clipPath id="clip0_480_10">
<rect width="108" height="133" fill="white"/>
</clipPath>
</defs>
</svg>
