<svg width="136" height="136" viewBox="0 0 136 136" fill="none" xmlns="http://www.w3.org/2000/svg">
<g clip-path="url(#clip0_480_14)">
<path d="M12.7563 136C11.0212 135.386 9.15475 135.003 7.57574 134.113C2.53003 131.268 0.0213694 126.817 0.0142727 121.024C-0.00701719 104.119 0.00717609 87.213 0.00717609 70.3074C0.00717609 59.0666 -0.0141138 47.8258 0.0142727 36.585C0.0355626 29.5581 4.55967 23.8012 11.2979 22.2085C12.4902 21.9283 13.7498 21.8148 14.9775 21.8148C34.142 21.79 53.3065 21.7971 72.471 21.8006C75.1961 21.8006 76.9986 23.3613 77.027 25.7273C77.0589 28.1393 75.228 29.7639 72.439 29.7639C53.452 29.7639 34.4649 29.7639 15.4779 29.7639C10.5812 29.7639 7.97315 32.3887 7.97315 37.3192C7.97315 65.0648 7.97315 92.8139 7.97315 120.559C7.97315 125.376 10.6237 128.026 15.4388 128.026C43.2328 128.026 71.0268 128.026 98.8243 128.026C103.561 128.026 106.251 125.355 106.251 120.652C106.251 101.756 106.251 82.8571 106.251 63.9616C106.251 63.387 106.219 62.7982 106.322 62.2413C106.698 60.2336 108.568 58.8183 110.552 58.985C112.563 59.1517 114.128 60.7905 114.206 62.8691C114.252 64.1496 114.217 65.4372 114.217 66.7177C114.217 84.6839 114.132 102.654 114.252 120.62C114.313 129.331 107.975 135.071 101.805 135.801C101.688 135.816 101.581 135.926 101.468 135.989H12.7563V136Z" fill="#313131"/>
<path d="M136 18.3493C135.319 21.2295 133.438 23.2762 131.408 25.2981C112.294 44.3603 93.2071 63.4509 74.1349 82.5592C72.9284 83.7652 71.6298 84.5314 69.9337 84.8471C64.157 85.9254 58.4052 87.1385 52.6356 88.2594C49.4279 88.8837 47.1215 86.5781 47.7425 83.3998C48.9241 77.3733 50.0844 71.3396 51.3653 65.3344C51.5817 64.3199 52.1814 63.2416 52.9195 62.5073C72.6942 42.6648 92.5081 22.8612 112.325 3.0612C116.427 -1.03927 121.984 -1.01089 126.125 3.08958C127.949 4.89506 129.709 6.76794 131.586 8.52021C133.658 10.4569 135.39 12.5746 136.003 15.43V18.3528L136 18.3493ZM107.585 18.6862C107.326 19.0481 107.07 19.5376 106.701 19.9065C92.0397 34.5844 77.4135 49.3014 62.6454 63.8801C60.119 66.3737 58.2881 68.9099 57.9687 72.5244C57.7736 74.7342 57.1597 76.9086 56.7091 79.2178C57.1242 79.1965 57.3371 79.2107 57.5429 79.1717C60.9671 78.4906 64.3947 77.8344 67.8011 77.0895C68.3476 76.9689 68.8763 76.522 69.295 76.1034C84.9501 60.4748 100.588 44.832 116.239 29.2034C116.576 28.8665 117.066 28.6785 117.403 28.4727C114.025 25.1065 110.963 22.056 107.581 18.6898L107.585 18.6862ZM113.791 12.7448C117.045 15.9975 120.125 19.0729 123.261 22.2121C124.581 20.8713 126.043 19.3957 127.498 17.9165C128.162 17.239 128.247 16.519 127.555 15.8202C125.092 13.3443 122.623 10.8719 120.142 8.41734C119.543 7.82498 118.844 7.83207 118.248 8.40316C116.683 9.89295 115.153 11.4182 113.794 12.7519L113.791 12.7448Z" fill="#313131"/>
</g>
<defs>
<clipPath id="clip0_480_14">
<rect width="136" height="136" fill="white"/>
</clipPath>
</defs>
</svg>
